Coordinates
version=1
nRows=13
nColumns=22
inDegrees=yes

Units are S.I. units (second, meters, Newtons, ...)
If the header above contains a line with 'inDegrees', this indicates whether rotational values are in degrees (yes) or radians (no).

endheader
time	pelvis_tilt	pelvis_list	pelvis_rotation	pelvis_tx	pelvis_ty	pelvis_tz	hip_flexion_r	hip_adduction_r	hip_rotation_r	knee_angle_r	ankle_angle_r	subtalar_angle_r	hip_flexion_l	hip_adduction_l	hip_rotation_l	knee_angle_l	ankle_angle_l	subtalar_angle_l	lumbar_extension	lumbar_bending	lumbar_rotation
      3.07000000	      1.53688133	      2.10809469	     90.74474684	      0.52223467	      0.92914968	     -0.63246822	     -5.88319329	      1.89488704	     -3.16081491	     -4.71714785	      5.26121351	      6.20710565	     -5.28695423	     -7.87828671	     -9.64657547	     -5.38503013	      5.50166772	      9.26977164	     -3.47557313	      0.33579641	     -1.16510683
      3.08000000	      1.52638306	      2.08476813	     90.72953467	      0.52130221	      0.92915803	     -0.63281566	     -5.88813483	      1.81885185	     -3.14461752	     -4.70314521	      5.24532095	      6.25062062	     -5.28859373	     -7.79899299	     -9.65851456	     -5.38836681	      5.54269998	      9.20348562	     -3.49268285	      0.29408670	     -1.20396311
      3.09000000	      1.51159625	      2.05863053	     90.72746180	      0.52034951	      0.92917106	     -0.63314617	     -5.88977602	      1.73945253	     -3.14362391	     -4.68737309	      5.23089993	      6.30108614	     -5.27449283	     -7.71732112	     -9.65398487	     -5.40782243	      5.58170831	      9.13054946	     -3.50851900	      0.24852281	     -1.24051553
      3.10000000	      1.50430240	      2.03544884	     90.73575115	      0.51937585	      0.92919131	     -0.63346386	     -5.88797154	      1.66810973	     -3.13546644	     -4.68724017	      5.20995015	      6.32688611	     -5.25998667	     -7.64511120	     -9.64815273	     -5.42504044	      5.61969102	      9.09534519	     -3.52806640	      0.21718218	     -1.28421839
      3.11000000	      1.47184363	      1.99620399	     90.76793743	      0.51835372	      0.92919273	     -0.63379777	     -5.87953727	      1.57007132	     -3.18908797	     -4.67031444	      5.21924184	      6.42440892	     -5.21301423	     -7.54576391	     -9.61899331	     -5.46437744	      5.65049840	      8.95077582	     -3.52430205	      0.15989776	     -1.33573493
      3.12000000	      1.44982503	      1.96975409	     90.79021045	      0.51735691	      0.92920733	     -0.63409544	     -5.87953027	      1.48433452	     -3.20035280	     -4.65828052	      5.19829766	      6.46394942	     -5.18073061	     -7.45793449	     -9.59778220	     -5.50302141	      5.69808795	      8.89055183	     -3.54188442	      0.11616385	     -1.35223873
      3.13000000	      1.43216315	      1.95088062	     90.81424937	      0.51636668	      0.92922775	     -0.63436443	     -5.87925521	      1.40451412	     -3.20642015	     -4.66055657	      5.18024529	      6.48451961	     -5.15415071	     -7.37530413	     -9.57673476	     -5.54203319	      5.73373639	      8.85595327	     -3.57291149	      0.08289542	     -1.36127705
      3.14000000	      1.40171473	      1.92166390	     90.85091931	      0.51535645	      0.92922376	     -0.63467170	     -5.88083931	      1.31273144	     -3.24614607	     -4.64428860	      5.18245826	      6.51665774	     -5.12729561	     -7.27508889	     -9.57810971	     -5.55759954	      5.77622616	      8.79368531	     -3.58131245	      0.03774494	     -1.38088291
      3.15000000	      1.36631992	      1.88574332	     90.89580026	      0.51433447	      0.92920590	     -0.63493511	     -5.85519765	      1.21540819	     -3.31353830	     -4.66501179	      5.23664711	      6.59746921	     -5.09215624	     -7.16655064	     -9.55833875	     -5.56629789	      5.78532855	      8.60051330	     -3.58992525	     -0.00675310	     -1.40376736
      3.16000000	      1.35353050	      1.86585851	     90.91675427	      0.51337366	      0.92919977	     -0.63517016	     -5.84618930	      1.14373677	     -3.31665231	     -4.67709609	      5.21058270	      6.60546100	     -5.08272734	     -7.08362901	     -9.55504264	     -5.56898498	      5.83234534	      8.57064073	     -3.62217713	     -0.02306862	     -1.38796841
      3.17000000	      1.32605373	      1.83865831	     90.94522245	      0.51240026	      0.92917200	     -0.63544516	     -5.84149675	      1.05781347	     -3.34978303	     -4.67219082	      5.22376070	      6.62010083	     -5.07758543	     -6.98163319	     -9.57886597	     -5.54795377	      5.87369177	      8.51303365	     -3.63525195	     -0.05170725	     -1.37356716
      3.18000000	      1.28391893	      1.81727511	     90.96941429	      0.51142787	      0.92914946	     -0.63568762	     -5.82099560	      0.95343459	     -3.38490453	     -4.71129500	      5.30157114	      6.65808561	     -5.07896697	     -6.86168297	     -9.58304450	     -5.52454624	      5.86440327	      8.32340756	     -3.65921201	     -0.09007333	     -1.35105705
      3.19000000	      1.27452076	      1.79470485	     90.99456186	      0.51048753	      0.92911721	     -0.63591590	     -5.80597672	      0.88858175	     -3.39711853	     -4.72855959	      5.27893211	      6.65928302	     -5.08529996	     -6.78147578	     -9.58679609	     -5.48884479	      5.91552781	      8.29252176	     -3.68247058	     -0.09074067	     -1.32186376
